<svg width="70" height="81" viewBox="0 0 70 81" fill="none" xmlns="http://www.w3.org/2000/svg">
<path fill-rule="evenodd" clip-rule="evenodd" d="M42.5562 80.55L6.93823 54.8758L8.118 47.2354L10.2528 39.7073L0.702271 46.3365L3.62362 40.1006L8.84834 32.4039L15.6461 24.7073L25.5899 15.9994L20.4776 11.7298L14.5787 7.741V11.1118L15.309 14.5949L16.4888 17.5163L17.9495 20.1005L16.0393 21.7298L13.7922 18.7522L11.882 15.2129L10.927 11.4489L10.5899 7.741L10.8708 3.69606L11.882 0.549988L33.3427 14.5949L32.5562 12.123L27.6124 8.07808L34.4101 7.01066H43.3989L50.8708 8.3028L54.4663 10.6062L57.8933 13.1904L64.2978 20.6062L67.8933 26.3927L58.3427 30.1005L56.882 33.7522L64.0169 44.6511L62.5 39.8197L59.5787 34.4826L61.4888 33.977L63.118 32.6286L64.2978 29.6511L66.0393 28.8646L69.2978 35.4376L64.6349 41.3365L68.3989 48.4152L64.2978 52.0668L68.3989 51.2241L66.6573 54.4264L63.6236 55.1567L65.4775 55.8309L63.118 59.1455L57.5 55.1567L57.9495 54.0331V53.0219L63.118 48.4152L64.0169 45.55L58.3427 47.9095L50.1405 45.7747L56.3202 52.6286L56.4326 54.0331L55.8708 55.1567L50.7584 57.9095L45.1967 60.2129L41.2641 56.6736L46.7135 55.1567L39.4101 54.0331L36.882 50.7747L46.7135 51.7859L36.7697 47.741L40.7584 43.6399L28.2304 37.0107L28.5674 31.9545L27.3877 35.3815L26.4326 38.977L34.8034 44.4264L28.9607 48.1904L24.2978 43.359L20.5337 37.6286L21.8259 31.168L23.8483 25.6623L15.0843 37.0107L18.9607 43.6399L24.9719 50.3253L32.4438 56.168L22.6686 52.9095L13.5674 48.1904L20.8708 57.4039L28.9607 65.8871L42.5562 80.55ZM34.1292 29.0893L30.1405 25.9432L38.5113 28.5275L43.736 30.1005L48.1742 34.8197L48.3427 39.7073L43.1742 33.977H38.5113L36.0393 32.3477L34.1292 29.0893ZM40.7584 22.4039L50.4214 20.6062L58.8483 22.6286L51.545 25.1005L40.7584 22.4039ZM47.5 16.3365L35.7023 17.4039L47.3315 12.2916L57.8933 17.4039L47.5 16.3365Z" fill="url(#paint0_linear_7588_10)"/>
<path d="M47.3878 67.5164L44.017 63.3591L54.2417 58.5838H58.1181L61.2642 62.1793L58.399 67.5164H47.3878Z" fill="url(#paint1_linear_7588_10)"/>
<path d="M62.3316 15.8871L54.9158 8.97703L59.6911 5.38152L64.7473 1.89838V5.10062L64.5788 8.30287L63.7922 12.5164L63.1181 14.6512L62.3316 15.8871Z" fill="url(#paint2_linear_7588_10)"/>
<defs>
<linearGradient id="paint0_linear_7588_10" x1="9.18426" y1="0.549988" x2="60.8158" y2="80.55" gradientUnits="userSpaceOnUse">
<stop stop-color="#EC003F"/>
<stop offset="1" stop-color="#193CB8"/>
</linearGradient>
<linearGradient id="paint1_linear_7588_10" x1="46.5803" y1="1.89838" x2="86.6012" y2="24.7459" gradientUnits="userSpaceOnUse">
<stop stop-color="#EC003F"/>
<stop offset="1" stop-color="#193CB8"/>
</linearGradient>
<linearGradient id="paint2_linear_7588_10" x1="46.5803" y1="1.89838" x2="86.6012" y2="24.7459" gradientUnits="userSpaceOnUse">
<stop stop-color="#EC003F"/>
<stop offset="1" stop-color="#193CB8"/>
</linearGradient>
</defs>
</svg>
